<svg xmlns="http://www.w3.org/2000/svg" version="1.1" width="251px" height="261px" style="shape-rendering:geometricPrecision; text-rendering:geometricPrecision; image-rendering:optimizeQuality; fill-rule:evenodd; clip-rule:evenodd" xmlns:xlink="http://www.w3.org/1999/xlink">
<g><path style="opacity:0.91" fill="#7294c3" d="M 185.5,25.5 C 150.048,7.86691 113.714,5.86691 76.5,19.5C 96.4813,10.6205 117.481,7.4538 139.5,10C 156.203,11.5393 171.537,16.706 185.5,25.5 Z"/></g>
<g><path style="opacity:1" fill="#d7e5f9" d="M 185.5,25.5 C 187.674,25.7497 189.341,26.7497 190.5,28.5C 194.553,31.8827 198.886,34.8827 203.5,37.5C 204.167,37.5 204.5,37.8333 204.5,38.5C 206.569,41.5725 209.236,43.9059 212.5,45.5C 214.766,49.4356 217.766,52.7689 221.5,55.5C 224.453,60.4503 227.786,65.117 231.5,69.5C 233.25,70.6594 234.25,72.326 234.5,74.5C 235.946,78.8775 237.946,82.8775 240.5,86.5C 254.133,123.737 252.133,160.07 234.5,195.5C 234.25,197.674 233.25,199.341 231.5,200.5C 228.117,204.553 225.117,208.886 222.5,213.5C 222.5,214.167 222.167,214.5 221.5,214.5C 218.427,216.569 216.094,219.236 214.5,222.5C 214.167,223.5 213.5,224.167 212.5,224.5C 209.236,226.094 206.569,228.427 204.5,231.5C 204.5,232.167 204.167,232.5 203.5,232.5C 198.886,235.117 194.553,238.117 190.5,241.5C 189.341,243.25 187.674,244.25 185.5,244.5C 150.052,262.145 113.719,264.145 76.5,250.5C 72.8491,248.008 68.8491,246.008 64.5,244.5C 62.326,244.25 60.6594,243.25 59.5,241.5C 55.117,237.786 50.4503,234.453 45.5,231.5C 42.7689,227.766 39.4356,224.766 35.5,222.5C 33.9059,219.236 31.5725,216.569 28.5,214.5C 27.8333,214.5 27.5,214.167 27.5,213.5C 24.8827,208.886 21.8827,204.553 18.5,200.5C 16.7497,199.341 15.7497,197.674 15.5,195.5C -11.6809,136.069 -1.68087,83.9025 45.5,39C 55.2565,31.4621 65.5898,24.9621 76.5,19.5C 113.714,5.86691 150.048,7.86691 185.5,25.5 Z"/></g>
<g><path style="opacity:1" fill="#000000" d="M 104.5,30.5 C 105.5,30.5 106.5,30.5 107.5,30.5C 107.634,28.7085 107.301,27.0418 106.5,25.5C 107.268,24.7375 107.768,23.7375 108,22.5C 108.498,25.4816 108.665,28.4816 108.5,31.5C 106.901,31.7678 105.568,31.4345 104.5,30.5 Z"/></g>
<g><path style="opacity:1" fill="#000000" d="M 124.5,22.5 C 125.267,23.172 125.934,24.0053 126.5,25C 125.68,27.3332 125.347,29.4999 125.5,31.5C 124.144,28.4292 123.811,25.4292 124.5,22.5 Z"/></g>
<g><path style="opacity:1" fill="#000000" d="M 119.5,25.5 C 118.167,27.1667 118.167,28.8333 119.5,30.5C 118.732,31.2625 118.232,32.2625 118,33.5C 117.333,30.5 117.333,27.5 118,24.5C 118.383,25.056 118.883,25.3893 119.5,25.5 Z"/></g>
<g><path style="opacity:1" fill="#000000" d="M 134.5,24.5 C 135.289,24.7828 135.956,25.2828 136.5,26C 135.751,27.7337 135.251,29.567 135,31.5C 134.503,29.1902 134.337,26.8568 134.5,24.5 Z"/></g>
<g><path style="opacity:1" fill="#000000" d="M 99.5,30.5 C 100.66,28.7973 99.9935,28.1307 97.5,28.5C 98.8484,27.8141 100.015,26.8141 101,25.5C 101.667,27.5 101.667,29.5 101,31.5C 100.617,30.944 100.117,30.6107 99.5,30.5 Z"/></g>
<g><path style="opacity:1" fill="#d9e8fb" d="M 106.5,25.5 C 107.301,27.0418 107.634,28.7085 107.5,30.5C 106.5,30.5 105.5,30.5 104.5,30.5C 104.077,28.2188 104.744,26.5521 106.5,25.5 Z"/></g>
<g><path style="opacity:1" fill="#000000" d="M 113.5,30.5 C 114.66,28.7973 113.993,28.1307 111.5,28.5C 112.848,27.8141 114.015,26.8141 115,25.5C 115.667,27.5 115.667,29.5 115,31.5C 114.617,30.944 114.117,30.6107 113.5,30.5 Z"/></g>
<g><path style="opacity:1" fill="#d9e8fb" d="M 119.5,25.5 C 120.649,25.7911 121.316,26.6244 121.5,28C 121.316,29.3756 120.649,30.2089 119.5,30.5C 118.167,28.8333 118.167,27.1667 119.5,25.5 Z"/></g>
<g><path style="opacity:1" fill="#000000" d="M 128.5,25.5 C 129.5,28.1667 130.5,28.1667 131.5,25.5C 132.404,26.209 132.737,27.209 132.5,28.5C 130.549,28.2267 129.049,28.8934 128,30.5C 127.22,28.6131 127.387,26.9464 128.5,25.5 Z"/></g>
<g><path style="opacity:1" fill="#d9e8fb" d="M 128.5,25.5 C 129.5,25.5 130.5,25.5 131.5,25.5C 130.5,28.1667 129.5,28.1667 128.5,25.5 Z"/></g>
<g><path style="opacity:1" fill="#d9e8fb" d="M 97.5,28.5 C 99.9935,28.1307 100.66,28.7973 99.5,30.5C 98.1667,30.5 97.5,29.8333 97.5,28.5 Z"/></g>
<g><path style="opacity:1" fill="#d9e8fb" d="M 111.5,28.5 C 113.993,28.1307 114.66,28.7973 113.5,30.5C 112.167,30.5 111.5,29.8333 111.5,28.5 Z"/></g>
<g><path style="opacity:0.608" fill="#7b9ac7" d="M 190.5,28.5 C 195.665,30.3375 199.999,33.3375 203.5,37.5C 198.886,34.8827 194.553,31.8827 190.5,28.5 Z"/></g>
<g><path style="opacity:1" fill="#7ba06d" d="M 145.5,42.5 C 133.226,40.2488 120.893,39.9155 108.5,41.5C 113.757,40.0249 119.257,39.3582 125,39.5C 132.164,39.1687 138.997,40.1687 145.5,42.5 Z"/></g>
<g><path style="opacity:1" fill="#b4f88e" d="M 145.5,42.5 C 147.099,42.2322 148.432,42.5655 149.5,43.5C 151.599,44.6118 153.933,45.2785 156.5,45.5C 157.791,45.2627 158.791,45.596 159.5,46.5C 161.426,48.2927 163.759,49.2927 166.5,49.5C 173.463,52.3139 179.796,56.1472 185.5,61C 196.129,70.1031 204.462,80.9364 210.5,93.5C 210.707,96.2406 211.707,98.5739 213.5,100.5C 214.738,102.214 215.405,104.214 215.5,106.5C 216.055,110.397 217.055,114.063 218.5,117.5C 218.5,117.833 218.5,118.167 218.5,118.5C 219.678,128.843 219.678,139.176 218.5,149.5C 218.064,156.578 216.397,163.244 213.5,169.5C 211.707,171.426 210.707,173.759 210.5,176.5C 209.116,180.287 207.283,183.954 205,187.5C 199.607,194.9 193.44,201.734 186.5,208C 179.365,212.868 172.032,217.534 164.5,222C 158.418,224.75 152.084,226.584 145.5,227.5C 133.226,229.751 120.893,230.084 108.5,228.5C 108.167,228.5 107.833,228.5 107.5,228.5C 103.022,226.877 98.3548,225.544 93.5,224.5C 92.209,224.737 91.209,224.404 90.5,223.5C 88.5739,221.707 86.2406,220.707 83.5,220.5C 70.9364,214.462 60.1031,206.129 51,195.5C 46.1472,189.796 42.3139,183.463 39.5,176.5C 39.2927,173.759 38.2927,171.426 36.5,169.5C 33.5302,161.731 31.5302,153.731 30.5,145.5C 29.7068,131.18 31.3735,117.18 35.5,103.5C 35.2627,102.209 35.596,101.209 36.5,100.5C 38.2927,98.5739 39.2927,96.2406 39.5,93.5C 51.9354,67.7292 71.9354,51.0626 99.5,43.5C 102.428,43.4349 105.095,42.7682 107.5,41.5C 107.833,41.5 108.167,41.5 108.5,41.5C 120.893,39.9155 133.226,40.2488 145.5,42.5 Z"/></g>
<g><path style="opacity:0.314" fill="#809fca" d="M 204.5,38.5 C 207.764,40.0941 210.431,42.4275 212.5,45.5C 209.236,43.9059 206.569,41.5725 204.5,38.5 Z"/></g>
<g><path style="opacity:1" fill="#7b9e6f" d="M 107.5,41.5 C 105.095,42.7682 102.428,43.4349 99.5,43.5C 101.838,41.9605 104.505,41.2938 107.5,41.5 Z"/></g>
<g><path style="opacity:1" fill="#7ca26c" d="M 149.5,43.5 C 152.228,43.1706 154.562,43.8372 156.5,45.5C 153.933,45.2785 151.599,44.6118 149.5,43.5 Z"/></g>
<g><path style="opacity:1" fill="#80a472" d="M 159.5,46.5 C 162.241,46.7073 164.574,47.7073 166.5,49.5C 163.759,49.2927 161.426,48.2927 159.5,46.5 Z"/></g>
<g><path style="opacity:0.992" fill="#8aa6d0" d="M 212.5,45.5 C 216.234,48.2311 219.234,51.5644 221.5,55.5C 217.766,52.7689 214.766,49.4356 212.5,45.5 Z"/></g>
<g><path style="opacity:1" fill="#000000" d="M 117.5,49.5 C 118.267,50.172 118.934,51.0053 119.5,52C 118.68,54.3332 118.347,56.4999 118.5,58.5C 117.144,55.4292 116.811,52.4292 117.5,49.5 Z"/></g>
<g><path style="opacity:1" fill="#000000" d="M 110.5,51.5 C 111.289,51.7828 111.956,52.2828 112.5,53C 111.751,54.7337 111.251,56.567 111,58.5C 110.503,56.1902 110.337,53.8568 110.5,51.5 Z"/></g>
<g><path style="opacity:1" fill="#000000" d="M 120.5,51.5 C 121.289,51.7828 121.956,52.2828 122.5,53C 121.751,54.7337 121.251,56.567 121,58.5C 120.503,56.1902 120.337,53.8568 120.5,51.5 Z"/></g>
<g><path style="opacity:1" fill="#000000" d="M 144.5,51.5 C 145.289,51.7828 145.956,52.2828 146.5,53C 145.751,54.7337 145.251,56.567 145,58.5C 144.503,56.1902 144.337,53.8568 144.5,51.5 Z"/></g>
<g><path style="opacity:1" fill="#b8ff91" d="M 104.5,52.5 C 105.5,52.5 106.5,52.5 107.5,52.5C 107.5,54.1667 107.5,55.8333 107.5,57.5C 106.5,57.5 105.5,57.5 104.5,57.5C 104.5,55.8333 104.5,54.1667 104.5,52.5 Z"/></g>
<g><path style="opacity:1" fill="#b8ff91" d="M 125.5,52.5 C 126.5,52.5 127.5,52.5 128.5,52.5C 128.5,54.1667 128.5,55.8333 128.5,57.5C 127.5,57.5 126.5,57.5 125.5,57.5C 125.5,55.8333 125.5,54.1667 125.5,52.5 Z"/></g>
<g><path style="opacity:1" fill="#000000" d="M 138.5,52.5 C 139.5,55.1667 140.5,55.1667 141.5,52.5C 142.404,53.209 142.737,54.209 142.5,55.5C 140.549,55.2267 139.049,55.8934 138,57.5C 137.22,55.6131 137.387,53.9464 138.5,52.5 Z"/></g>
<g><path style="opacity:1" fill="#b8ff91" d="M 138.5,52.5 C 139.5,52.5 140.5,52.5 141.5,52.5C 140.5,55.1667 139.5,55.1667 138.5,52.5 Z"/></g>
<g><path style="opacity:0.867" fill="#7997c6" d="M 221.5,55.5 C 225.99,59.3261 229.323,63.9927 231.5,69.5C 227.786,65.117 224.453,60.4503 221.5,55.5 Z"/></g>
<g><path style="opacity:1" fill="#f3c9c7" d="M 158.5,79.5 C 168.167,84.5 175.5,91.8333 180.5,101.5C 181.659,105.151 183.326,108.485 185.5,111.5C 186.167,111.5 186.5,111.833 186.5,112.5C 185.876,112.917 185.543,113.584 185.5,114.5C 188.147,122.587 189.48,130.92 189.5,139.5C 186.381,171.126 169.381,190.96 138.5,199C 135.518,199.498 132.518,199.665 129.5,199.5C 120.92,199.48 112.587,198.147 104.5,195.5C 103.584,195.543 102.917,195.876 102.5,196.5C 101.833,196.5 101.5,196.167 101.5,195.5C 98.4846,193.326 95.1513,191.659 91.5,190.5C 81.8333,185.5 74.5,178.167 69.5,168.5C 66.6171,161.837 63.9505,155.171 61.5,148.5C 60.5233,145.713 60.19,142.713 60.5,139.5C 60.5217,126.125 63.5217,113.458 69.5,101.5C 77.6004,87.1014 89.6004,77.4347 105.5,72.5C 105.917,73.1239 106.584,73.4573 107.5,73.5C 125.245,68.9749 142.245,70.9749 158.5,79.5 Z"/></g>
<g><path style="opacity:1" fill="#c98476" d="M 158.5,79.5 C 142.245,70.9749 125.245,68.9749 107.5,73.5C 106.584,73.4573 105.917,73.1239 105.5,72.5C 121.063,68.2401 136.397,69.0734 151.5,75C 154.239,76.0259 156.572,77.5259 158.5,79.5 Z"/></g>
<g><path style="opacity:0.857" fill="#7697c5" d="M 234.5,74.5 C 237.535,77.9024 239.535,81.9024 240.5,86.5C 237.946,82.8775 235.946,78.8775 234.5,74.5 Z"/></g>
<g><path style="opacity:1" fill="#000000" d="M 100.5,88.5 C 101.468,90.6074 101.802,92.9407 101.5,95.5C 97.1617,95.3781 96.8284,95.0447 100.5,94.5C 100.5,92.5 100.5,90.5 100.5,88.5 Z"/></g>
<g><path style="opacity:1" fill="#000000" d="M 111.5,89.5 C 112.5,92.1667 113.5,92.1667 114.5,89.5C 115.404,90.209 115.737,91.209 115.5,92.5C 113.549,92.2267 112.049,92.8934 111,94.5C 110.22,92.6131 110.387,90.9464 111.5,89.5 Z"/></g>
<g><path style="opacity:1" fill="#f7cecb" d="M 111.5,89.5 C 112.5,89.5 113.5,89.5 114.5,89.5C 113.5,92.1667 112.5,92.1667 111.5,89.5 Z"/></g>
<g><path style="opacity:1" fill="#000000" d="M 130.5,94.5 C 131.66,92.7973 130.993,92.1307 128.5,92.5C 129.848,91.8141 131.015,90.8141 132,89.5C 132.667,91.5 132.667,93.5 132,95.5C 131.617,94.944 131.117,94.6107 130.5,94.5 Z"/></g>
<g><path style="opacity:1" fill="#000000" d="M 142.5,89.5 C 143.5,92.1667 144.5,92.1667 145.5,89.5C 146.404,90.209 146.737,91.209 146.5,92.5C 144.549,92.2267 143.049,92.8934 142,94.5C 141.22,92.6131 141.387,90.9464 142.5,89.5 Z"/></g>
<g><path style="opacity:1" fill="#f7cecb" d="M 142.5,89.5 C 143.5,89.5 144.5,89.5 145.5,89.5C 144.5,92.1667 143.5,92.1667 142.5,89.5 Z"/></g>
<g><path style="opacity:1" fill="#f7cecb" d="M 128.5,92.5 C 130.993,92.1307 131.66,92.7973 130.5,94.5C 129.167,94.5 128.5,93.8333 128.5,92.5 Z"/></g>
<g><path style="opacity:1" fill="#7ea270" d="M 210.5,93.5 C 212.293,95.4261 213.293,97.7594 213.5,100.5C 211.707,98.5739 210.707,96.2406 210.5,93.5 Z"/></g>
<g><path style="opacity:1" fill="#7ca06e" d="M 39.5,93.5 C 39.2927,96.2406 38.2927,98.5739 36.5,100.5C 36.7073,97.7594 37.7073,95.4261 39.5,93.5 Z"/></g>
<g><path style="opacity:1" fill="#f9df94" d="M 117.5,99.5 C 138.857,97.9279 153.023,107.261 160,127.5C 162.429,146.144 155.262,159.644 138.5,168C 121.354,173.727 107.187,169.56 96,155.5C 85.036,136.667 87.8694,120.167 104.5,106C 108.647,103.26 112.98,101.093 117.5,99.5 Z"/></g>
<g><path style="opacity:1" fill="#c78775" d="M 180.5,101.5 C 183.207,104.247 184.873,107.58 185.5,111.5C 183.326,108.485 181.659,105.151 180.5,101.5 Z"/></g>
<g><path style="opacity:1" fill="#7fa074" d="M 35.5,103.5 C 31.3735,117.18 29.7068,131.18 30.5,145.5C 28.8448,133.154 29.6781,120.821 33,108.5C 33.3736,106.509 34.207,104.842 35.5,103.5 Z"/></g>
<g><path style="opacity:1" fill="#c88575" d="M 69.5,101.5 C 63.5217,113.458 60.5217,126.125 60.5,139.5C 58.5305,125.724 61.5305,113.058 69.5,101.5 Z"/></g>
<g><path style="opacity:1" fill="#83a37c" d="M 215.5,106.5 C 217.568,109.763 218.568,113.43 218.5,117.5C 217.055,114.063 216.055,110.397 215.5,106.5 Z"/></g>
<g><path style="opacity:0.957" fill="#7797c5" d="M 76.5,19.5 C 65.5898,24.9621 55.2565,31.4621 45.5,39C -1.68087,83.9025 -11.6809,136.069 15.5,195.5C 13.5259,193.572 12.0259,191.239 11,188.5C 5.43569,175.89 1.60236,162.89 -0.5,149.5C -0.5,139.833 -0.5,130.167 -0.5,120.5C 5.84697,78.648 27.1803,46.8147 63.5,25C 67.624,22.6028 71.9573,20.7694 76.5,19.5 Z"/></g>
<g><path style="opacity:1" fill="#c78875" d="M 186.5,112.5 C 190.042,121.371 191.042,130.371 189.5,139.5C 189.48,130.92 188.147,122.587 185.5,114.5C 185.543,113.584 185.876,112.917 186.5,112.5 Z"/></g>
<g><path style="opacity:1" fill="#000000" d="M 106.5,137.5 C 107.5,137.5 108.5,137.5 109.5,137.5C 109.634,135.708 109.301,134.042 108.5,132.5C 109.268,131.737 109.768,130.737 110,129.5C 110.498,132.482 110.665,135.482 110.5,138.5C 108.901,138.768 107.568,138.434 106.5,137.5 Z"/></g>
<g><path style="opacity:1" fill="#000000" d="M 119.5,131.5 C 120.289,131.783 120.956,132.283 121.5,133C 120.751,134.734 120.251,136.567 120,138.5C 119.503,136.19 119.337,133.857 119.5,131.5 Z"/></g>
<g><path style="opacity:1" fill="#000000" d="M 140.5,131.5 C 141.289,131.783 141.956,132.283 142.5,133C 141.751,134.734 141.251,136.567 141,138.5C 140.503,136.19 140.337,133.857 140.5,131.5 Z"/></g>
<g><path style="opacity:1" fill="#fee598" d="M 108.5,132.5 C 109.301,134.042 109.634,135.708 109.5,137.5C 108.5,137.5 107.5,137.5 106.5,137.5C 106.077,135.219 106.744,133.552 108.5,132.5 Z"/></g>
<g><path style="opacity:1" fill="#fee598" d="M 113.5,132.5 C 114.5,132.5 115.5,132.5 116.5,132.5C 116.5,134.167 116.5,135.833 116.5,137.5C 115.5,137.5 114.5,137.5 113.5,137.5C 113.5,135.833 113.5,134.167 113.5,132.5 Z"/></g>
<g><path style="opacity:1" fill="#000000" d="M 123.5,132.5 C 124.239,132.369 124.906,132.536 125.5,133C 124.123,140.342 123.456,140.176 123.5,132.5 Z"/></g>
<g><path style="opacity:1" fill="#000000" d="M 133.5,137.5 C 134.66,135.797 133.993,135.131 131.5,135.5C 132.848,134.814 134.015,133.814 135,132.5C 135.667,134.5 135.667,136.5 135,138.5C 134.617,137.944 134.117,137.611 133.5,137.5 Z"/></g>
<g><path style="opacity:1" fill="#799c6c" d="M 218.5,118.5 C 220.015,123.58 220.682,128.914 220.5,134.5C 220.713,139.767 220.046,144.767 218.5,149.5C 219.678,139.176 219.678,128.843 218.5,118.5 Z"/></g>
<g><path style="opacity:1" fill="#fee598" d="M 131.5,135.5 C 133.993,135.131 134.66,135.797 133.5,137.5C 132.167,137.5 131.5,136.833 131.5,135.5 Z"/></g>
<g><path style="opacity:0.782" fill="#7293c3" d="M 240.5,86.5 C 245.389,97.394 248.723,108.727 250.5,120.5C 250.5,130.167 250.5,139.833 250.5,149.5C 248.635,160.284 245.802,170.95 242,181.5C 240.249,186.674 237.749,191.341 234.5,195.5C 252.133,160.07 254.133,123.737 240.5,86.5 Z"/></g>
<g><path style="opacity:1" fill="#c78474" d="M 61.5,148.5 C 63.9505,155.171 66.6171,161.837 69.5,168.5C 65.0938,162.632 62.4271,155.965 61.5,148.5 Z"/></g>
<g><path style="opacity:1" fill="#80a472" d="M 36.5,169.5 C 38.2927,171.426 39.2927,173.759 39.5,176.5C 37.7073,174.574 36.7073,172.241 36.5,169.5 Z"/></g>
<g><path style="opacity:1" fill="#7a9e6b" d="M 213.5,169.5 C 213.293,172.241 212.293,174.574 210.5,176.5C 210.707,173.759 211.707,171.426 213.5,169.5 Z"/></g>
<g><path style="opacity:1" fill="#c78775" d="M 91.5,190.5 C 95.1513,191.659 98.4846,193.326 101.5,195.5C 97.5799,194.873 94.2466,193.207 91.5,190.5 Z"/></g>
<g><path style="opacity:1" fill="#c88875" d="M 102.5,196.5 C 102.917,195.876 103.584,195.543 104.5,195.5C 112.587,198.147 120.92,199.48 129.5,199.5C 120.371,201.042 111.371,200.042 102.5,196.5 Z"/></g>
<g><path style="opacity:0.867" fill="#7a9ac6" d="M 18.5,200.5 C 21.8827,204.553 24.8827,208.886 27.5,213.5C 23.3375,209.999 20.3375,205.665 18.5,200.5 Z"/></g>
<g><path style="opacity:0.565" fill="#7a9ac7" d="M 231.5,200.5 C 229.662,205.665 226.662,209.999 222.5,213.5C 225.117,208.886 228.117,204.553 231.5,200.5 Z"/></g>
<g><path style="opacity:1" fill="#000000" d="M 114.5,206.5 C 115.267,207.172 115.934,208.005 116.5,209C 115.68,211.333 115.347,213.5 115.5,215.5C 114.144,212.429 113.811,209.429 114.5,206.5 Z"/></g>
<g><path style="opacity:1" fill="#000000" d="M 103.5,214.5 C 104.833,212.833 104.833,211.167 103.5,209.5C 104.117,209.389 104.617,209.056 105,208.5C 105.667,211.167 105.667,213.833 105,216.5C 104.722,215.584 104.222,214.918 103.5,214.5 Z"/></g>
<g><path style="opacity:1" fill="#b8ff91" d="M 103.5,209.5 C 104.833,211.167 104.833,212.833 103.5,214.5C 102.351,214.209 101.684,213.376 101.5,212C 101.684,210.624 102.351,209.791 103.5,209.5 Z"/></g>
<g><path style="opacity:1" fill="#000000" d="M 110.5,214.5 C 111.66,212.797 110.993,212.131 108.5,212.5C 109.848,211.814 111.015,210.814 112,209.5C 112.667,211.5 112.667,213.5 112,215.5C 111.617,214.944 111.117,214.611 110.5,214.5 Z"/></g>
<g><path style="opacity:1" fill="#000000" d="M 118.5,209.5 C 119.5,212.167 120.5,212.167 121.5,209.5C 122.404,210.209 122.737,211.209 122.5,212.5C 120.549,212.227 119.049,212.893 118,214.5C 117.22,212.613 117.387,210.946 118.5,209.5 Z"/></g>
<g><path style="opacity:1" fill="#b8ff91" d="M 118.5,209.5 C 119.5,209.5 120.5,209.5 121.5,209.5C 120.5,212.167 119.5,212.167 118.5,209.5 Z"/></g>
<g><path style="opacity:1" fill="#000000" d="M 136.5,214.5 C 137.66,212.797 136.993,212.131 134.5,212.5C 135.848,211.814 137.015,210.814 138,209.5C 138.667,211.5 138.667,213.5 138,215.5C 137.617,214.944 137.117,214.611 136.5,214.5 Z"/></g>
<g><path style="opacity:1" fill="#b8ff91" d="M 108.5,212.5 C 110.993,212.131 111.66,212.797 110.5,214.5C 109.167,214.5 108.5,213.833 108.5,212.5 Z"/></g>
<g><path style="opacity:1" fill="#b8ff91" d="M 134.5,212.5 C 136.993,212.131 137.66,212.797 136.5,214.5C 135.167,214.5 134.5,213.833 134.5,212.5 Z"/></g>
<g><path style="opacity:0.424" fill="#819ecb" d="M 28.5,214.5 C 31.5725,216.569 33.9059,219.236 35.5,222.5C 32.4275,220.431 30.0941,217.764 28.5,214.5 Z"/></g>
<g><path style="opacity:0.392" fill="#7e9dca" d="M 221.5,214.5 C 219.906,217.764 217.573,220.431 214.5,222.5C 216.094,219.236 218.427,216.569 221.5,214.5 Z"/></g>
<g><path style="opacity:1" fill="#7ea270" d="M 83.5,220.5 C 86.2406,220.707 88.5739,221.707 90.5,223.5C 87.7594,223.293 85.4261,222.293 83.5,220.5 Z"/></g>
<g><path style="opacity:1" fill="#81a277" d="M 93.5,224.5 C 98.3548,225.544 103.022,226.877 107.5,228.5C 102.378,228.39 97.7118,227.056 93.5,224.5 Z"/></g>
<g><path style="opacity:0.416" fill="#7f9eca" d="M 212.5,224.5 C 210.431,227.573 207.764,229.906 204.5,231.5C 206.569,228.427 209.236,226.094 212.5,224.5 Z"/></g>
<g><path style="opacity:0.953" fill="#82a0cb" d="M 35.5,222.5 C 39.4356,224.766 42.7689,227.766 45.5,231.5C 41.5644,229.234 38.2311,226.234 35.5,222.5 Z"/></g>
<g><path style="opacity:1" fill="#7ca06f" d="M 145.5,227.5 C 138.832,229.862 131.832,230.862 124.5,230.5C 118.914,230.682 113.58,230.015 108.5,228.5C 120.893,230.084 133.226,229.751 145.5,227.5 Z"/></g>
<g><path style="opacity:0.867" fill="#7998c6" d="M 45.5,231.5 C 50.4503,234.453 55.117,237.786 59.5,241.5C 53.9927,239.323 49.3261,235.99 45.5,231.5 Z"/></g>
<g><path style="opacity:0.863" fill="#7999c7" d="M 203.5,232.5 C 199.999,236.662 195.665,239.662 190.5,241.5C 194.553,238.117 198.886,235.117 203.5,232.5 Z"/></g>
<g><path style="opacity:1" fill="#000000" d="M 124.5,240.5 C 125.289,240.783 125.956,241.283 126.5,242C 125.736,244.069 125.236,246.236 125,248.5C 124.764,246.236 124.264,244.069 123.5,242C 124.056,241.617 124.389,241.117 124.5,240.5 Z"/></g>
<g><path style="opacity:1" fill="#000000" d="M 117.5,241.5 C 118.289,241.783 118.956,242.283 119.5,243C 118.751,244.734 118.251,246.567 118,248.5C 117.503,246.19 117.337,243.857 117.5,241.5 Z"/></g>
<g><path style="opacity:1" fill="#000000" d="M 127.5,241.5 C 128.289,241.783 128.956,242.283 129.5,243C 128.751,244.734 128.251,246.567 128,248.5C 127.503,246.19 127.337,243.857 127.5,241.5 Z"/></g>
<g><path style="opacity:1" fill="#000000" d="M 134.5,247.5 C 135.66,245.797 134.993,245.131 132.5,245.5C 133.848,244.814 135.015,243.814 136,242.5C 136.667,244.5 136.667,246.5 136,248.5C 135.617,247.944 135.117,247.611 134.5,247.5 Z"/></g>
<g><path style="opacity:1" fill="#d9e8fb" d="M 132.5,245.5 C 134.993,245.131 135.66,245.797 134.5,247.5C 133.167,247.5 132.5,246.833 132.5,245.5 Z"/></g>
<g><path style="opacity:0.557" fill="#7495c5" d="M 64.5,244.5 C 68.8491,246.008 72.8491,248.008 76.5,250.5C 71.9024,249.535 67.9024,247.535 64.5,244.5 Z"/></g>
<g><path style="opacity:0.839" fill="#7292c2" d="M 185.5,244.5 C 181.341,247.749 176.674,250.249 171.5,252C 160.95,255.802 150.284,258.635 139.5,260.5C 129.833,260.5 120.167,260.5 110.5,260.5C 98.7273,258.723 87.394,255.389 76.5,250.5C 113.719,264.145 150.052,262.145 185.5,244.5 Z"/></g>
</svg>
