<svg xmlns="http://www.w3.org/2000/svg" version="1.1" width="535px" height="228px" style="shape-rendering:geometricPrecision; text-rendering:geometricPrecision; image-rendering:optimizeQuality; fill-rule:evenodd; clip-rule:evenodd" xmlns:xlink="http://www.w3.org/1999/xlink">
<g><path style="opacity:0.999" fill="#3b6f9d" d="M 262.5,57.5 C 262.5,59.1667 262.5,60.8333 262.5,62.5C 242.52,60.8907 222.52,59.3907 202.5,58C 201.692,57.6924 201.025,57.1924 200.5,56.5C 201.63,55.3777 202.297,54.0443 202.5,52.5C 208.413,43.7571 216.079,36.9237 225.5,32C 231.343,30.6763 236.676,31.6763 241.5,35C 249.072,42.0685 256.072,49.5685 262.5,57.5 Z"/></g>
<g><path style="opacity:1" fill="#ffd749" d="M 304.5,65.5 C 304.03,66.6935 303.03,67.3601 301.5,67.5C 290.127,69.2844 278.793,71.2844 267.5,73.5C 266.287,73.2528 265.62,72.5862 265.5,71.5C 266.993,66.7838 266.826,62.1171 265,57.5C 261.019,52.6844 256.852,48.0178 252.5,43.5C 256.065,38.7661 260.399,34.9328 265.5,32C 281.125,33.2522 292.958,40.7522 301,54.5C 302.759,58.0087 303.926,61.6754 304.5,65.5 Z"/></g>
<g><path style="opacity:0.998" fill="#4277a5" d="M 202.5,52.5 C 202.297,54.0443 201.63,55.3777 200.5,56.5C 201.025,57.1924 201.692,57.6924 202.5,58C 222.52,59.3907 242.52,60.8907 262.5,62.5C 262.5,60.8333 262.5,59.1667 262.5,57.5C 266.213,66.0384 264.213,73.0384 256.5,78.5C 245.83,77.7775 235.163,76.9442 224.5,76C 223.263,75.7679 222.263,75.2679 221.5,74.5C 224.144,71.5198 226.811,68.5198 229.5,65.5C 228.998,64.479 228.332,64.3123 227.5,65C 221.631,71.0362 215.631,76.8695 209.5,82.5C 206.105,79.0985 202.438,76.0985 198.5,73.5C 195.071,68.9666 194.737,64.3 197.5,59.5C 198.906,59.0269 199.573,58.0269 199.5,56.5C 199.738,54.5956 200.738,53.2623 202.5,52.5 Z M 207.5,60.5 C 212.83,61.6529 214.163,64.4862 211.5,69C 207.515,70.3339 204.848,69.0005 203.5,65C 204.357,62.9812 205.691,61.4812 207.5,60.5 Z"/></g>
<g><path style="opacity:0.196" fill="#baccdd" d="M 199.5,56.5 C 199.573,58.0269 198.906,59.0269 197.5,59.5C 197.427,57.9731 198.094,56.9731 199.5,56.5 Z"/></g>
<g><path style="opacity:0.999" fill="#ffde59" d="M 304.5,65.5 C 305.643,68.0679 305.476,70.7346 304,73.5C 298.658,79.0089 293.158,84.3422 287.5,89.5C 272.484,92.0582 257.484,94.7249 242.5,97.5C 243.167,96.5 243.833,95.5 244.5,94.5C 245.833,93.8333 246.833,92.8333 247.5,91.5C 248.833,90.8333 249.833,89.8333 250.5,88.5C 251.833,87.8333 252.833,86.8333 253.5,85.5C 254.833,84.8333 255.833,83.8333 256.5,82.5C 257.833,81.8333 258.833,80.8333 259.5,79.5C 261.262,78.7377 262.262,77.4044 262.5,75.5C 263.512,74.1283 264.512,72.795 265.5,71.5C 265.62,72.5862 266.287,73.2528 267.5,73.5C 278.793,71.2844 290.127,69.2844 301.5,67.5C 303.03,67.3601 304.03,66.6935 304.5,65.5 Z"/></g>
<g><path style="opacity:0.514" fill="#bdd0e1" d="M 198.5,73.5 C 202.438,76.0985 206.105,79.0985 209.5,82.5C 209.103,83.525 208.437,83.6917 207.5,83C 204.296,79.9641 201.296,76.7974 198.5,73.5 Z"/></g>
<g><path style="opacity:0.431" fill="#fff2c0" d="M 262.5,75.5 C 262.262,77.4044 261.262,78.7377 259.5,79.5C 259.738,77.5956 260.738,76.2623 262.5,75.5 Z"/></g>
<g><path style="opacity:0.439" fill="#fff1bc" d="M 259.5,79.5 C 258.833,80.8333 257.833,81.8333 256.5,82.5C 256.5,80.5 257.5,79.5 259.5,79.5 Z"/></g>
<g><path style="opacity:0.998" fill="#467ead" d="M 221.5,74.5 C 222.263,75.2679 223.263,75.7679 224.5,76C 235.163,76.9442 245.83,77.7775 256.5,78.5C 249.806,85.5264 243.139,92.5264 236.5,99.5C 224.83,98.8886 213.163,98.2219 201.5,97.5C 201.5,96.5 201.5,95.5 201.5,94.5C 207.833,87.5 214.5,80.8333 221.5,74.5 Z"/></g>
<g><path style="opacity:0.443" fill="#fff2bf" d="M 256.5,82.5 C 255.833,83.8333 254.833,84.8333 253.5,85.5C 253.5,83.5 254.5,82.5 256.5,82.5 Z"/></g>
<g><path style="opacity:0.447" fill="#fff2bf" d="M 253.5,85.5 C 252.833,86.8333 251.833,87.8333 250.5,88.5C 250.5,86.5 251.5,85.5 253.5,85.5 Z"/></g>
<g><path style="opacity:0.455" fill="#fff2be" d="M 250.5,88.5 C 249.833,89.8333 248.833,90.8333 247.5,91.5C 247.5,89.5 248.5,88.5 250.5,88.5 Z"/></g>
<g><path style="opacity:0.459" fill="#fff2be" d="M 247.5,91.5 C 246.833,92.8333 245.833,93.8333 244.5,94.5C 244.5,92.5 245.5,91.5 247.5,91.5 Z"/></g>
<g><path style="opacity:0.471" fill="#fff3c1" d="M 244.5,94.5 C 243.833,95.5 243.167,96.5 242.5,97.5C 242.167,97.5 241.833,97.5 241.5,97.5C 241.5,95.5 242.5,94.5 244.5,94.5 Z"/></g>
<g><path style="opacity:0.999" fill="#4883b4" d="M 201.5,94.5 C 201.5,95.5 201.5,96.5 201.5,97.5C 213.163,98.2219 224.83,98.8886 236.5,99.5C 235.167,104.167 235.167,108.833 236.5,113.5C 236.38,114.586 235.713,115.253 234.5,115.5C 222.852,114.279 211.186,113.279 199.5,112.5C 196.655,106.071 197.322,100.071 201.5,94.5 Z"/></g>
<g><path style="opacity:0.999" fill="#ffe369" d="M 287.5,89.5 C 283.167,95.1667 278.167,100.167 272.5,104.5C 271.596,105.209 271.263,106.209 271.5,107.5C 260.756,108.735 250.089,110.402 239.5,112.5C 236.762,107.098 237.429,102.098 241.5,97.5C 241.833,97.5 242.167,97.5 242.5,97.5C 257.484,94.7249 272.484,92.0582 287.5,89.5 Z"/></g>
<g><path style="opacity:0.004" fill="#fffae6" d="M 291.5,101.5 C 291.167,102.5 290.5,103.167 289.5,103.5C 289.5,102.167 290.167,101.5 291.5,101.5 Z"/></g>
<g><path style="opacity:0.999" fill="#ffe673" d="M 303.5,98.5 C 303.5,99.5 303.5,100.5 303.5,101.5C 300.803,102.63 298.137,102.63 295.5,101.5C 294.167,101.5 292.833,101.5 291.5,101.5C 290.167,101.5 289.5,102.167 289.5,103.5C 288.167,105.167 288.167,106.833 289.5,108.5C 289.423,109.75 288.756,110.583 287.5,111C 273.154,113.502 258.82,116.002 244.5,118.5C 244.027,117.094 243.027,116.427 241.5,116.5C 240.4,115.395 239.733,114.062 239.5,112.5C 250.089,110.402 260.756,108.735 271.5,107.5C 271.263,106.209 271.596,105.209 272.5,104.5C 272.517,106.028 273.184,106.528 274.5,106C 280.681,99.6519 287.014,93.4852 293.5,87.5C 297.566,90.5628 300.899,94.2294 303.5,98.5 Z"/></g>
<g><path style="opacity:0.999" fill="#ffe879" d="M 303.5,98.5 C 305.955,102.598 306.122,106.932 304,111.5C 298.32,125.182 288.487,134.348 274.5,139C 271.833,139.667 269.167,139.667 266.5,139C 264.68,138.8 263.347,137.966 262.5,136.5C 262.027,135.094 261.027,134.427 259.5,134.5C 259.5,134.167 259.5,133.833 259.5,133.5C 259.027,132.094 258.027,131.427 256.5,131.5C 256.5,131.167 256.5,130.833 256.5,130.5C 256.027,129.094 255.027,128.427 253.5,128.5C 253.5,128.167 253.5,127.833 253.5,127.5C 253.027,126.094 252.027,125.427 250.5,125.5C 250.5,125.167 250.5,124.833 250.5,124.5C 250.027,123.094 249.027,122.427 247.5,122.5C 247.5,122.167 247.5,121.833 247.5,121.5C 247.027,120.094 246.027,119.427 244.5,119.5C 244.5,119.167 244.5,118.833 244.5,118.5C 258.82,116.002 273.154,113.502 287.5,111C 288.756,110.583 289.423,109.75 289.5,108.5C 293.612,111.291 296.612,110.291 298.5,105.5C 297.476,104.148 296.476,102.815 295.5,101.5C 298.137,102.63 300.803,102.63 303.5,101.5C 303.5,100.5 303.5,99.5 303.5,98.5 Z"/></g>
<g><path style="opacity:1" fill="#548dbd" d="M 199.5,112.5 C 211.186,113.279 222.852,114.279 234.5,115.5C 235.713,115.253 236.38,114.586 236.5,113.5C 240.783,118.12 245.117,122.787 249.5,127.5C 245.44,133.91 239.773,137.91 232.5,139.5C 217.068,135.947 206.068,126.947 199.5,112.5 Z"/></g>
<g><path style="opacity:0.471" fill="#fff6cd" d="M 241.5,116.5 C 243.027,116.427 244.027,117.094 244.5,118.5C 242.973,118.573 241.973,117.906 241.5,116.5 Z"/></g>
<g><path style="opacity:0.463" fill="#fff7cf" d="M 244.5,119.5 C 246.027,119.427 247.027,120.094 247.5,121.5C 245.973,121.573 244.973,120.906 244.5,119.5 Z"/></g>
<g><path style="opacity:0.459" fill="#fff7d0" d="M 247.5,122.5 C 249.027,122.427 250.027,123.094 250.5,124.5C 248.973,124.573 247.973,123.906 247.5,122.5 Z"/></g>
<g><path style="opacity:0.451" fill="#fff7d1" d="M 250.5,125.5 C 252.027,125.427 253.027,126.094 253.5,127.5C 251.973,127.573 250.973,126.906 250.5,125.5 Z"/></g>
<g><path style="opacity:0.447" fill="#fff7d1" d="M 253.5,128.5 C 255.027,128.427 256.027,129.094 256.5,130.5C 254.973,130.573 253.973,129.906 253.5,128.5 Z"/></g>
<g><path style="opacity:0.439" fill="#fff7d1" d="M 256.5,131.5 C 258.027,131.427 259.027,132.094 259.5,133.5C 257.973,133.573 256.973,132.906 256.5,131.5 Z"/></g>
<g><path style="opacity:0.431" fill="#fff7d2" d="M 259.5,134.5 C 261.027,134.427 262.027,135.094 262.5,136.5C 260.973,136.573 259.973,135.906 259.5,134.5 Z"/></g>
<g><path style="opacity:0.954" fill="#f8db4e" d="M 487.5,140.5 C 491.514,140.334 495.514,140.501 499.5,141C 499.833,141.333 500.167,141.667 500.5,142C 498.866,142.494 497.199,142.66 495.5,142.5C 495.666,147.179 495.499,151.845 495,156.5C 494.586,156.957 494.086,157.291 493.5,157.5C 492.506,152.544 492.173,147.544 492.5,142.5C 490.219,142.923 488.552,142.256 487.5,140.5 Z"/></g>
<g><path style="opacity:0.84" fill="#f8db4d" d="M 501.5,140.5 C 503.144,140.286 504.644,140.62 506,141.5C 507.333,144.833 508.667,148.167 510,151.5C 511.852,148.289 513.519,144.956 515,141.5C 516.356,140.62 517.856,140.286 519.5,140.5C 519.949,146.352 519.449,152.019 518,157.5C 516.738,153.687 516.071,149.687 516,145.5C 514.754,149.921 512.754,153.921 510,157.5C 507.953,154.036 506.287,150.37 505,146.5C 504.667,149.833 504.333,153.167 504,156.5C 503.333,157.833 502.667,157.833 502,156.5C 501.501,151.177 501.334,145.844 501.5,140.5 Z"/></g>
<g><path style="opacity:0.616" fill="#8fb9dd" d="M 165.5,154.5 C 162.5,153.167 159.5,153.167 156.5,154.5C 157.514,153.235 159.014,152.569 161,152.5C 162.986,152.569 164.486,153.235 165.5,154.5 Z"/></g>
<g><path style="opacity:0.989" fill="#528ac7" d="M 165.5,154.5 C 167.595,158.932 166.095,161.265 161,161.5C 155.905,161.265 154.405,158.932 156.5,154.5C 159.5,153.167 162.5,153.167 165.5,154.5 Z"/></g>
<g><path style="opacity:0.278" fill="#9fc3e2" d="M 42.5,155.5 C 34.8333,155.5 27.1667,155.5 19.5,155.5C 19.5,169.833 19.5,184.167 19.5,198.5C 18.504,184.01 18.1707,169.343 18.5,154.5C 26.6841,154.174 34.6841,154.508 42.5,155.5 Z"/></g>
<g><path style="opacity:0.998" fill="#357dc0" d="M 42.5,155.5 C 46.0433,155.872 48.21,157.872 49,161.5C 50.1411,168.084 49.4744,174.417 47,180.5C 46.2496,181.126 45.4162,181.626 44.5,182C 38.1754,182.5 31.8421,182.666 25.5,182.5C 25.8288,188.206 25.4954,193.872 24.5,199.5C 22.38,201.009 20.7133,200.676 19.5,198.5C 19.5,184.167 19.5,169.833 19.5,155.5C 27.1667,155.5 34.8333,155.5 42.5,155.5 Z M 39.5,161.5 C 40.4584,161.953 41.2917,162.619 42,163.5C 42.6667,167.167 42.6667,170.833 42,174.5C 41.5,175 41,175.5 40.5,176C 35.5111,176.499 30.5111,176.666 25.5,176.5C 25.5,171.5 25.5,166.5 25.5,161.5C 30.1667,161.5 34.8333,161.5 39.5,161.5 Z"/></g>
<g><path style="opacity:0.998" fill="#4a86c5" d="M 126.5,161.5 C 121.695,160.513 116.695,160.179 111.5,160.5C 111.263,161.791 111.596,162.791 112.5,163.5C 116.18,167.183 119.514,171.183 122.5,175.5C 122.738,177.404 123.738,178.738 125.5,179.5C 128.469,182.642 131.302,185.975 134,189.5C 134.667,192.167 134.667,194.833 134,197.5C 133.097,198.701 131.931,199.535 130.5,200C 123.42,200.795 116.42,200.628 109.5,199.5C 108.738,197.738 107.404,196.738 105.5,196.5C 102.927,190.754 104.593,188.254 110.5,189C 111.337,190.011 111.67,191.178 111.5,192.5C 113.915,193.814 116.748,194.481 120,194.5C 122.833,194.167 125.667,193.833 128.5,193.5C 128.376,192.893 128.043,192.56 127.5,192.5C 120.018,183.571 112.518,174.571 105,165.5C 104.204,162.961 104.371,160.628 105.5,158.5C 106.833,157.833 107.833,156.833 108.5,155.5C 115.321,154.345 122.321,154.179 129.5,155C 134.143,157.072 135.643,160.572 134,165.5C 132.612,166.554 131.112,166.72 129.5,166C 128.601,164.348 127.601,162.848 126.5,161.5 Z"/></g>
<g><path style="opacity:0.999" fill="#4886c4" d="M 294.5,193.5 C 297.053,194.255 299.72,194.922 302.5,195.5C 303.799,197.153 303.466,198.653 301.5,200C 294.5,200.667 287.5,200.667 280.5,200C 278.398,198.267 278.065,196.267 279.5,194C 282.146,193.503 284.813,193.336 287.5,193.5C 288.495,182.679 288.828,171.679 288.5,160.5C 285.5,160.5 282.5,160.5 279.5,160.5C 278.113,158.511 278.447,156.678 280.5,155C 284.5,154.333 288.5,154.333 292.5,155C 293,155.5 293.5,156 294,156.5C 294.5,168.829 294.667,181.162 294.5,193.5 Z"/></g>
<g><path style="opacity:0.993" fill="#fbe06a" d="M 384.5,192.5 C 385.473,190.052 385.806,187.385 385.5,184.5C 382.5,184.5 379.5,184.5 376.5,184.5C 376.5,182.833 376.5,181.167 376.5,179.5C 381.833,179.5 387.167,179.5 392.5,179.5C 392.666,183.846 392.499,188.179 392,192.5C 389.209,199.481 384.042,202.147 376.5,200.5C 370.622,201.592 365.788,199.926 362,195.5C 361.333,187.167 361.333,178.833 362,170.5C 365.032,166.641 368.198,162.974 371.5,159.5C 373.167,158.5 374.5,157.167 375.5,155.5C 380.416,154.389 385.416,154.222 390.5,155C 393.167,157 393.167,159 390.5,161C 386.5,161.333 382.5,161.667 378.5,162C 368.652,169.96 365.652,180.127 369.5,192.5C 374.53,193.829 379.53,193.829 384.5,192.5 Z"/></g>
<g><path style="opacity:0.999" fill="#fbe068" d="M 406.5,154.5 C 408.39,154.297 409.89,154.963 411,156.5C 411.333,168.5 411.667,180.5 412,192.5C 417,193.833 422,193.833 427,192.5C 427.333,180.5 427.667,168.5 428,156.5C 429.733,154.398 431.733,154.065 434,155.5C 434.667,168.833 434.667,182.167 434,195.5C 432.833,196.667 431.667,197.833 430.5,199C 408.683,205.682 400.016,197.849 404.5,175.5C 404.537,168.264 405.204,161.264 406.5,154.5 Z"/></g>
<g><path style="opacity:0.999" fill="#fbe067" d="M 447.5,195.5 C 451.605,194.891 455.605,194.225 459.5,193.5C 459.5,182.5 459.5,171.5 459.5,160.5C 455.833,160.5 452.167,160.5 448.5,160.5C 445.876,158.802 445.876,156.969 448.5,155C 457.5,154.333 466.5,154.333 475.5,155C 477.602,156.733 477.935,158.733 476.5,161C 472.848,161.499 469.182,161.665 465.5,161.5C 465.5,172.167 465.5,182.833 465.5,193.5C 469.182,193.335 472.848,193.501 476.5,194C 477.935,196.267 477.602,198.267 475.5,200C 466.5,200.667 457.5,200.667 448.5,200C 446.534,198.653 446.201,197.153 447.5,195.5 Z"/></g>
<g><path style="opacity:0.361" fill="#a4c5e3" d="M 108.5,155.5 C 107.833,156.833 106.833,157.833 105.5,158.5C 105.5,156.5 106.5,155.5 108.5,155.5 Z"/></g>
<g><path style="opacity:0.592" fill="#feefb2" d="M 375.5,155.5 C 374.5,157.167 373.167,158.5 371.5,159.5C 371.833,157.167 373.167,155.833 375.5,155.5 Z"/></g>
<g><path style="opacity:0.455" fill="#99c0e1" d="M 126.5,161.5 C 121.381,160.897 116.715,161.564 112.5,163.5C 111.596,162.791 111.263,161.791 111.5,160.5C 116.695,160.179 121.695,160.513 126.5,161.5 Z"/></g>
<g><path style="opacity:0.647" fill="#659fd1" d="M 39.5,161.5 C 34.8333,161.5 30.1667,161.5 25.5,161.5C 25.5,166.5 25.5,171.5 25.5,176.5C 24.5119,171.36 24.1786,166.026 24.5,160.5C 29.6946,160.179 34.6946,160.513 39.5,161.5 Z"/></g>
<g><path style="opacity:0.533" fill="#609ccf" d="M 279.5,160.5 C 282.5,160.5 285.5,160.5 288.5,160.5C 288.828,171.679 288.495,182.679 287.5,193.5C 287.5,182.833 287.5,172.167 287.5,161.5C 284.615,161.806 281.948,161.473 279.5,160.5 Z"/></g>
<g><path style="opacity:0.192" fill="#fdf6d3" d="M 448.5,160.5 C 452.167,160.5 455.833,160.5 459.5,160.5C 459.5,171.5 459.5,182.5 459.5,193.5C 459.167,193.5 458.833,193.5 458.5,193.5C 458.5,182.833 458.5,172.167 458.5,161.5C 454.958,161.813 451.625,161.479 448.5,160.5 Z"/></g>
<g><path style="opacity:0.998" fill="#4a87c5" d="M 234.5,165.5 C 237.278,165.022 239.278,166.022 240.5,168.5C 245.337,164.693 250.337,164.527 255.5,168C 261.463,171.426 264.13,176.592 263.5,183.5C 263.518,186.924 263.018,190.257 262,193.5C 258.272,197.913 253.605,200.579 248,201.5C 245.019,201.343 242.352,200.343 240,198.5C 239.828,202.871 239.328,207.204 238.5,211.5C 236.356,212.953 234.523,212.62 233,210.5C 232.333,196.167 232.333,181.833 233,167.5C 233.717,166.956 234.217,166.289 234.5,165.5 Z M 249.5,172.5 C 249.973,173.906 250.973,174.573 252.5,174.5C 258.105,180.959 257.772,187.126 251.5,193C 249.956,194.187 248.289,194.52 246.5,194C 236.415,185.177 237.415,178.011 249.5,172.5 Z"/></g>
<g><path style="opacity:0.995" fill="#528ac7" d="M 62.5,167.5 C 64.5,167.5 66.5,167.5 68.5,167.5C 69.1679,175.836 71.8345,183.503 76.5,190.5C 81.1648,183.838 84.1648,176.505 85.5,168.5C 90.1167,166.288 92.45,167.622 92.5,172.5C 87.8477,185.478 82.3477,198.144 76,210.5C 74.0042,212.059 71.6709,212.726 69,212.5C 63.2644,213.435 61.0977,211.268 62.5,206C 65.1667,205.667 67.8333,205.333 70.5,205C 71.7865,202.978 72.7865,200.811 73.5,198.5C 72.7579,197.713 71.9246,197.047 71,196.5C 67.727,190.288 64.727,183.954 62,177.5C 61.2534,174.076 61.42,170.743 62.5,167.5 Z"/></g>
<g><path style="opacity:0.985" fill="#3c7fc1" d="M 165.5,169.5 C 165.5,177.833 165.5,186.167 165.5,194.5C 168.167,194.5 170.833,194.5 173.5,194.5C 174.807,196.223 174.807,198.057 173.5,200C 166.167,200.667 158.833,200.667 151.5,200C 150.193,198.057 150.193,196.223 151.5,194.5C 154.167,194.5 156.833,194.5 159.5,194.5C 159.825,187.313 159.491,180.313 158.5,173.5C 156.143,173.663 153.81,173.497 151.5,173C 150.594,171.301 150.261,169.467 150.5,167.5C 155.944,166.892 160.944,167.558 165.5,169.5 Z"/></g>
<g><path style="opacity:0.997" fill="#3c80c2" d="M 191.5,167.5 C 193.292,167.366 194.958,167.699 196.5,168.5C 200.042,168.38 203.542,168.714 207,169.5C 208.699,169.613 209.866,168.947 210.5,167.5C 215.352,166.277 218.519,167.944 220,172.5C 220.502,180.861 220.835,189.194 221,197.5C 218.667,201.5 216.333,201.5 214,197.5C 213.831,189.812 213.331,182.145 212.5,174.5C 211.252,175.04 210.085,175.707 209,176.5C 208.831,184.188 208.331,191.855 207.5,199.5C 205.38,201.009 203.713,200.676 202.5,198.5C 202.5,190.167 202.5,181.833 202.5,173.5C 201.209,173.263 200.209,173.596 199.5,174.5C 199.167,175.5 198.5,176.167 197.5,176.5C 195.537,183.424 194.87,190.757 195.5,198.5C 194.462,200.519 193.128,200.853 191.5,199.5C 190.167,188.833 190.167,178.167 191.5,167.5 Z"/></g>
<g><path style="opacity:0.944" fill="#699bcf" d="M 196.5,168.5 C 201.072,167.847 205.739,167.513 210.5,167.5C 209.866,168.947 208.699,169.613 207,169.5C 203.542,168.714 200.042,168.38 196.5,168.5 Z"/></g>
<g><path style="opacity:0.996" fill="#4c88c5" d="M 330.5,193.5 C 336.399,194.205 342.399,194.872 348.5,195.5C 349.399,196.994 349.065,198.494 347.5,200C 323.394,205.228 314.227,196.062 320,172.5C 321.543,170.622 323.376,169.122 325.5,168C 342.707,162.971 350.541,169.137 349,186.5C 348.5,187 348,187.5 347.5,188C 340.167,188.333 332.833,188.667 325.5,189C 326.78,190.966 328.447,192.466 330.5,193.5 Z M 330.5,173.5 C 337.379,172.251 341.379,174.918 342.5,181.5C 336.833,181.5 331.167,181.5 325.5,181.5C 325.179,177.506 326.845,174.839 330.5,173.5 Z"/></g>
<g><path style="opacity:0.762" fill="#5192ca" d="M 191.5,167.5 C 190.167,178.167 190.167,188.833 191.5,199.5C 190.172,194.544 189.505,189.211 189.5,183.5C 189.505,177.789 190.172,172.456 191.5,167.5 Z"/></g>
<g><path style="opacity:0.482" fill="#a8c7e4" d="M 249.5,172.5 C 251.027,172.427 252.027,173.094 252.5,174.5C 250.973,174.573 249.973,173.906 249.5,172.5 Z"/></g>
<g><path style="opacity:0.318" fill="#8db9dd" d="M 199.5,174.5 C 200.209,173.596 201.209,173.263 202.5,173.5C 202.5,181.833 202.5,190.167 202.5,198.5C 202.154,190.281 201.154,182.281 199.5,174.5 Z"/></g>
<g><path style="opacity:0.655" fill="#a5c3e3" d="M 122.5,175.5 C 124.262,176.262 125.262,177.596 125.5,179.5C 123.738,178.738 122.738,177.404 122.5,175.5 Z"/></g>
<g><path style="opacity:0.16" fill="#d9e8f3" d="M 197.5,176.5 C 196.864,183.933 196.198,191.266 195.5,198.5C 194.87,190.757 195.537,183.424 197.5,176.5 Z"/></g>
<g><path style="opacity:0.688" fill="#fceca0" d="M 376.5,184.5 C 379.5,184.5 382.5,184.5 385.5,184.5C 385.806,187.385 385.473,190.052 384.5,192.5C 384.5,190.167 384.5,187.833 384.5,185.5C 381.615,185.806 378.948,185.473 376.5,184.5 Z"/></g>
<g><path style="opacity:0.635" fill="#6ba3d2" d="M 111.5,192.5 C 116.933,193.802 122.266,193.802 127.5,192.5C 128.043,192.56 128.376,192.893 128.5,193.5C 125.667,193.833 122.833,194.167 120,194.5C 116.748,194.481 113.915,193.814 111.5,192.5 Z"/></g>
<g><path style="opacity:0.627" fill="#a4c6e3" d="M 158.5,173.5 C 159.491,180.313 159.825,187.313 159.5,194.5C 156.833,194.5 154.167,194.5 151.5,194.5C 153.607,193.532 155.941,193.198 158.5,193.5C 158.5,186.833 158.5,180.167 158.5,173.5 Z"/></g>
<g><path style="opacity:0.625" fill="#a2c4e3" d="M 165.5,169.5 C 166.492,177.316 166.826,185.316 166.5,193.5C 169.059,193.198 171.393,193.532 173.5,194.5C 170.833,194.5 168.167,194.5 165.5,194.5C 165.5,186.167 165.5,177.833 165.5,169.5 Z"/></g>
<g><path style="opacity:0.633" fill="#7fb0d9" d="M 294.5,193.5 C 297.698,192.964 300.365,193.631 302.5,195.5C 299.72,194.922 297.053,194.255 294.5,193.5 Z"/></g>
<g><path style="opacity:0.634" fill="#77acd7" d="M 330.5,193.5 C 336.926,192.88 342.926,193.547 348.5,195.5C 342.399,194.872 336.399,194.205 330.5,193.5 Z"/></g>
<g><path style="opacity:0.634" fill="#fbea94" d="M 458.5,193.5 C 458.833,193.5 459.167,193.5 459.5,193.5C 455.605,194.225 451.605,194.891 447.5,195.5C 450.684,193.586 454.351,192.92 458.5,193.5 Z"/></g>
<g><path style="opacity:0.561" fill="#a8c6e4" d="M 105.5,196.5 C 107.404,196.738 108.738,197.738 109.5,199.5C 107.596,199.262 106.262,198.262 105.5,196.5 Z"/></g>
</svg>
