<svg xmlns="http://www.w3.org/2000/svg" version="1.1" width="634px" height="631px" style="shape-rendering:geometricPrecision; text-rendering:geometricPrecision; image-rendering:optimizeQuality; fill-rule:evenodd; clip-rule:evenodd" xmlns:xlink="http://www.w3.org/1999/xlink">
<g><path style="opacity:0.996" fill="#fefefe" d="M 123.5,-0.5 C 252.167,-0.5 380.833,-0.5 509.5,-0.5C 567.06,8.8852 606.226,40.8852 627,95.5C 629.832,104.819 631.999,114.153 633.5,123.5C 633.5,251.167 633.5,378.833 633.5,506.5C 623.62,565.221 590.62,604.721 534.5,625C 526.123,627.278 517.79,629.111 509.5,630.5C 380.833,630.5 252.167,630.5 123.5,630.5C 65.9402,621.115 26.7736,589.115 6,534.5C 3.16778,525.181 1.00111,515.847 -0.5,506.5C -0.5,378.833 -0.5,251.167 -0.5,123.5C 8.8852,65.9402 40.8852,26.7736 95.5,6C 104.819,3.16778 114.153,1.00111 123.5,-0.5 Z"/></g>
<g><path style="opacity:1" fill="#ec5990" d="M 128.5,52.5 C 253.167,52.3333 377.834,52.5 502.5,53C 545.433,60.5997 571.267,85.7664 580,128.5C 580.667,252.167 580.667,375.833 580,499.5C 572.176,543.324 546.342,569.158 502.5,577C 377.833,577.667 253.167,577.667 128.5,577C 85.7604,568.261 60.5937,542.427 53,499.5C 52.3333,375.833 52.3333,252.167 53,128.5C 61.6801,86.6536 86.8467,61.3203 128.5,52.5 Z"/></g>
<g><path style="opacity:1" fill="#fefbfc" d="M 309.5,135.5 C 328.868,134.01 342.535,142.01 350.5,159.5C 374.16,160.333 397.826,160.833 421.5,161C 443.492,164.994 456.992,177.828 462,199.5C 462.667,284.167 462.667,368.833 462,453.5C 457.856,476.311 444.356,489.811 421.5,494C 350.833,494.667 280.167,494.667 209.5,494C 190.711,489.878 178.211,478.712 172,460.5C 170.352,373.526 170.018,286.526 171,199.5C 175.794,178.706 188.627,165.873 209.5,161C 233.84,160.833 258.174,160.333 282.5,159.5C 287.771,147.225 296.771,139.225 309.5,135.5 Z"/></g>
<g><path style="opacity:1" fill="#ec5a90" d="M 308.5,144.5 C 326.541,142.093 338.374,149.426 344,166.5C 344.833,167.333 345.667,168.167 346.5,169C 354.493,169.5 362.493,169.666 370.5,169.5C 370.666,179.506 370.5,189.506 370,199.5C 368.932,204.235 366.099,207.402 361.5,209C 331.5,209.667 301.5,209.667 271.5,209C 267.333,207.5 264.5,204.667 263,200.5C 262.5,190.172 262.334,179.839 262.5,169.5C 271.276,169.941 279.942,169.441 288.5,168C 291.427,156.912 298.094,149.079 308.5,144.5 Z"/></g>
<g><path style="opacity:1" fill="#ec5990" d="M 212.5,169.5 C 226.167,169.5 239.833,169.5 253.5,169.5C 253.173,179.348 253.506,189.014 254.5,198.5C 255.349,208.032 260.349,214.198 269.5,217C 300.5,217.667 331.5,217.667 362.5,217C 372.331,214.672 377.665,208.505 378.5,198.5C 379.494,189.014 379.827,179.348 379.5,169.5C 393.167,169.5 406.833,169.5 420.5,169.5C 438.654,172.82 449.821,183.487 454,201.5C 454.667,285.167 454.667,368.833 454,452.5C 450.827,469.341 440.994,480.175 424.5,485C 352.167,485.667 279.833,485.667 207.5,485C 191.577,479.746 182.077,468.913 179,452.5C 178.333,368.833 178.333,285.167 179,201.5C 183.195,183.471 194.361,172.804 212.5,169.5 Z"/></g>
<g><path style="opacity:1" fill="#f4a2c0" d="M 212.5,169.5 C 226.323,168.504 240.323,168.171 254.5,168.5C 254.5,178.5 254.5,188.5 254.5,198.5C 253.506,189.014 253.173,179.348 253.5,169.5C 239.833,169.5 226.167,169.5 212.5,169.5 Z"/></g>
<g><path style="opacity:1" fill="#f5a3c1" d="M 420.5,169.5 C 406.833,169.5 393.167,169.5 379.5,169.5C 379.827,179.348 379.494,189.014 378.5,198.5C 378.5,188.5 378.5,178.5 378.5,168.5C 392.677,168.171 406.677,168.504 420.5,169.5 Z"/></g>
<g><path style="opacity:1" fill="#fefefe" d="M 221.5,298.5 C 247.835,298.333 274.169,298.5 300.5,299C 303.172,301.679 302.838,304.012 299.5,306C 273.5,306.667 247.5,306.667 221.5,306C 218.914,303.506 218.914,301.006 221.5,298.5 Z"/></g>
<g><path style="opacity:1" fill="#fefefe" d="M 330.5,298.5 C 357.169,298.333 383.835,298.5 410.5,299C 412.059,301.642 411.725,303.975 409.5,306C 383.5,306.667 357.5,306.667 331.5,306C 329.285,303.758 328.952,301.258 330.5,298.5 Z"/></g>
<g><path style="opacity:1" fill="#fef4f8" d="M 222.5,399.5 C 248.169,399.333 273.835,399.5 299.5,400C 303.476,402.716 303.476,405.383 299.5,408C 273.5,408.667 247.5,408.667 221.5,408C 218.665,404.695 218.999,401.862 222.5,399.5 Z"/></g>
<g><path style="opacity:1" fill="#fef4f7" d="M 331.5,399.5 C 357.502,399.333 383.502,399.5 409.5,400C 413.476,402.716 413.476,405.383 409.5,408C 383.5,408.667 357.5,408.667 331.5,408C 328.899,405.17 328.899,402.337 331.5,399.5 Z"/></g>
</svg>
